<?xml version="1.0" encoding="utf-8"?>
<!-- Generator: Adobe Illustrator 23.0.2, SVG Export Plug-In . SVG Version: 6.00 Build 0)  -->
<svg version="1.1" id="Layer_1" xmlns="http://www.w3.org/2000/svg" xmlns:xlink="http://www.w3.org/1999/xlink" x="0px" y="0px"
	 viewBox="0 0 70 70" style="enable-background:new 0 0 70 70;" xml:space="preserve">
<style type="text/css">
	.st0{fill:#2B2B2B;}
</style>
<g>
	<g>
		<g>
			<path class="st0" d="M50.5,67.6H19.9c-8,0-14.5-6.5-14.5-14.5V29.2c0-1.1,0.9-2.1,2.1-2.1h55.4c1.1,0,2.1,0.9,2.1,2.1v23.9
				C65,61.1,58.5,67.6,50.5,67.6z M9.6,31.2v21.9c0,5.7,4.6,10.3,10.3,10.3h30.6c5.7,0,10.3-4.6,10.3-10.3V31.2H9.6z"/>
		</g>
		<g>
			<path class="st0" d="M42.4,56.7H28c-1.1,0-2.1-0.9-2.1-2.1v-7.2c0-5.1,4.2-9.3,9.3-9.3s9.3,4.2,9.3,9.3v7.2
				C44.5,55.7,43.6,56.7,42.4,56.7z M30,52.5h10.3v-5.2c0-2.9-2.3-5.2-5.2-5.2c-2.9,0-5.2,2.3-5.2,5.2V52.5z"/>
		</g>
		<g>
			<path class="st0" d="M62.9,23.2C62.9,23.2,62.9,23.2,62.9,23.2l-11.1,0c-1.1,0-2.1-0.9-2.1-2.1c0-1.1,0.9-2.1,2.1-2.1
				c0,0,0,0,0,0l9.1,0V6.7h-6.9v3.5c0,0.5-0.2,1.1-0.6,1.5c-0.4,0.4-0.9,0.6-1.5,0.6l0,0l-11.1,0c-1.1,0-2.1-0.9-2.1-2.1V6.7h-6.9
				v3.5c0,1.1-0.9,2.1-2.1,2.1l-11.1,0c-0.5,0-1.1-0.2-1.5-0.6c-0.4-0.4-0.6-0.9-0.6-1.5V6.7H9.6v12.4h9c1.1,0,2.1,0.9,2.1,2.1
				s-0.9,2.1-2.1,2.1h-11c-1.1,0-2.1-0.9-2.1-2.1V4.6c0-1.1,0.9-2.1,2.1-2.1h11.1c1.1,0,2.1,0.9,2.1,2.1v3.5l7,0V4.6
				c0-1.1,0.9-2.1,2.1-2.1h11.1c1.1,0,2.1,0.9,2.1,2.1v3.5l6.9,0V4.6c0-1.1,0.9-2.1,2.1-2.1h11.1C64,2.6,65,3.5,65,4.6v16.5
				c0,0.5-0.2,1.1-0.6,1.5C64,23,63.4,23.2,62.9,23.2z"/>
		</g>
	</g>
</g>
</svg>
