<svg xmlns="http://www.w3.org/2000/svg" xmlns:xlink="http://www.w3.org/1999/xlink" viewBox="0 0 178.7 258.05"><defs><style>.a{fill:none;}.b{fill:#fff;}.c,.h{fill:#7b2b2c;}.d{fill:#682629;}.e{fill:#dd5050;}.f{opacity:0.32;}.g{clip-path:url(#a);}.h{opacity:0.35;}.i{fill:#ad3e45;}.j{fill:#1d4651;}.k{fill:#2a637c;}.l{fill:#4fabde;}.m{fill:#1980af;}.n{fill:#5fd6ff;}.o{fill:#54b7e5;}.p{clip-path:url(#b);}.q{clip-path:url(#c);}</style><clipPath id="a"><rect class="a" x="40.8" y="81.65" width="61.09" height="107.79"/></clipPath><clipPath id="b"><path class="a" d="M50.25,78.38h66.13a0,0,0,0,1,0,0v34.09a11.29,11.29,0,0,1-11.29,11.29H61.54a11.29,11.29,0,0,1-11.29-11.29V78.38A0,0,0,0,1,50.25,78.38Z"/></clipPath><clipPath id="c"><polygon class="a" points="97.87 54.95 76.94 54.95 76.94 63.05 84.43 63.05 84.43 75.44 92.53 75.44 92.53 63.05 97.87 63.05 97.87 54.95"/></clipPath></defs><title>Artboard 1</title><rect class="b" x="68.17" y="179.76" width="31.72" height="43.62"/><rect class="c" x="48.29" y="71.61" width="14.04" height="5.09"/><path class="c" d="M96.66,71.61h10.86a3.18,3.18,0,0,1,3.18,3.18V76.7a0,0,0,0,1,0,0h-14a0,0,0,0,1,0,0V71.61A0,0,0,0,1,96.66,71.61Z"/><path class="c" d="M33.9,178.74h9.89a0,0,0,0,1,0,0v11.49a0,0,0,0,1,0,0H38.12A4.23,4.23,0,0,1,33.9,186v-7.27A0,0,0,0,1,33.9,178.74Z"/><path class="d" d="M37.81,178.74H47.7a0,0,0,0,1,0,0v11.49a0,0,0,0,1,0,0H42A4.23,4.23,0,0,1,37.81,186v-7.27A0,0,0,0,1,37.81,178.74Z"/><rect class="e" x="41.67" y="81" width="61.09" height="107.79"/><path class="c" d="M104.22,190.24h-64V79.54h64Zm-61.09-2.91h58.18V82.45H43.13Z"/><g class="f"><g class="g"><path class="c" d="M122.81,151.58l-9.62-13h1.11V119.35L46.11,94.6,30.71,105a1.84,1.84,0,0,0-1.36-.48,1.89,1.89,0,0,0-1.3.62l-18.81,21a1.9,1.9,0,0,0,.15,2.67l18.38,16.45a1.89,1.89,0,0,0,2.67-.15l13.41-15v8.47l-1.16-1.06-4.6,14.81,19,9.65-.58,18.82A9.06,9.06,0,0,0,56,198.64l-.42,13.71,11.32.35,1.39-45,8.91,4.48,3.31-30.65,4.87,29.13L92.64,167l4.78,47,12.87-2.09-5.22-51.34ZM55.54,189.76a2.26,2.26,0,0,1,.75-1.68l-.1,3.27A2.27,2.27,0,0,1,55.54,189.76Zm25.25-50.13.17-1.06h4.55Z"/></g></g><rect class="h" x="42.91" y="97.51" width="14.04" height="15.78"/><path class="i" d="M95,176.64a3.39,3.39,0,1,1,3.38-3.39A3.39,3.39,0,0,1,95,176.64Zm0-3.86a.47.47,0,0,0-.47.47.47.47,0,1,0,.94,0A.47.47,0,0,0,95,172.78Z"/><path class="i" d="M55.82,160.78a3.38,3.38,0,1,1,3.38-3.38A3.38,3.38,0,0,1,55.82,160.78Zm0-3.85a.47.47,0,1,0,.47.47A.47.47,0,0,0,55.82,156.93Z"/><path class="i" d="M63.36,185.84a1.46,1.46,0,0,1-1.46-1.46v-1.53a1.46,1.46,0,0,1-.85-2.48l1.28-1.27a1.45,1.45,0,0,1,2.48,1v4.25A1.46,1.46,0,0,1,63.36,185.84Z"/><path class="i" d="M64.73,186.92H61.89a1.46,1.46,0,0,1,0-2.91h2.84a1.46,1.46,0,0,1,0,2.91Z"/><polygon class="j" points="59.06 195.25 77.17 192.05 77.15 200.37 59.06 195.25"/><polygon class="j" points="113.03 194.56 96.58 191.4 96.6 199.62 113.03 194.56"/><rect class="j" x="59.06" y="137.72" width="48.37" height="21.03"/><circle class="k" cx="130.31" cy="92.82" r="4.85"/><rect class="k" x="110.81" y="83.53" width="15.58" height="20.01"/><rect class="k" x="124.71" y="98.84" width="15.58" height="21.35" transform="translate(22.98 242.01) rotate(-90)"/><path class="l" d="M138.55,97.18h19.2a0,0,0,0,1,0,0v22a0,0,0,0,1,0,0H142.14a3.59,3.59,0,0,1-3.59-3.59V97.18A0,0,0,0,1,138.55,97.18Z"/><path class="k" d="M157.75,120.58H142.14a5,5,0,0,1-5-5V97.18a1.45,1.45,0,0,1,1.45-1.46h19.2a1.45,1.45,0,0,1,1.45,1.46v21.95A1.45,1.45,0,0,1,157.75,120.58ZM140,98.63v16.91a2.13,2.13,0,0,0,2.14,2.13H156.3v-19Z"/><path class="k" d="M144.59,109.74H139.4a1.46,1.46,0,1,1,0-2.91h5.19a1.46,1.46,0,0,1,0,2.91Z"/><path class="k" d="M143.71,115H139.4a1.46,1.46,0,1,1,0-2.91h4.31a1.46,1.46,0,1,1,0,2.91Z"/><path class="k" d="M143.71,104.56H139.4a1.46,1.46,0,1,1,0-2.91h4.31a1.46,1.46,0,1,1,0,2.91Z"/><circle class="k" cx="119.04" cy="109.36" r="9.73"/><circle class="j" cx="119.93" cy="110.58" r="6.91"/><path class="m" d="M130.68,91.07c0-8.08-7.62-17-17-17s-17,8.95-17,17C96.63,102.17,130.68,102.17,130.68,91.07Z"/><path class="k" d="M113.66,100.85a31.8,31.8,0,0,1-12.29-2.2,12.53,12.53,0,0,1-4.36-3,6.79,6.79,0,0,1-1.83-4.61,16.68,16.68,0,0,1,1.46-6.65,20.56,20.56,0,0,1,3.93-5.9,19.61,19.61,0,0,1,5.84-4.27,16.66,16.66,0,0,1,14.5,0,19.73,19.73,0,0,1,5.84,4.27,20.76,20.76,0,0,1,3.93,5.9,16.86,16.86,0,0,1,1.46,6.65,6.76,6.76,0,0,1-1.84,4.61,12.44,12.44,0,0,1-4.36,3A31.75,31.75,0,0,1,113.66,100.85Zm0-25.35a13.93,13.93,0,0,0-6,1.38,16.79,16.79,0,0,0-5,3.65,15.89,15.89,0,0,0-4.59,10.54c0,1.36.77,3.31,4.44,4.91a29.25,29.25,0,0,0,11.13,2,29.16,29.16,0,0,0,11.12-2c3.68-1.6,4.45-3.55,4.45-4.91a15.94,15.94,0,0,0-4.59-10.54,16.83,16.83,0,0,0-5-3.65A13.92,13.92,0,0,0,113.66,75.5Z"/><path class="l" d="M49,77.54h69.4a0,0,0,0,1,0,0v35.78a11.85,11.85,0,0,1-11.85,11.85H60.88A11.85,11.85,0,0,1,49,113.32V77.54A0,0,0,0,1,49,77.54Z"/><path class="k" d="M106.58,126.63H60.88a13.32,13.32,0,0,1-13.31-13.31V76.09h72.31v37.23A13.32,13.32,0,0,1,106.58,126.63ZM50.48,79v34.32a10.41,10.41,0,0,0,10.4,10.4h45.7a10.42,10.42,0,0,0,10.4-10.4V79Z"/><path class="k" d="M102.16,124.31a1.45,1.45,0,0,1-1.45-1.45V82.16a1.45,1.45,0,1,1,2.9,0v40.7A1.45,1.45,0,0,1,102.16,124.31Z"/><polygon class="k" points="84.3 139.59 88.27 163.34 117.12 148.68 106.66 134.53 84.3 139.59"/><polygon class="k" points="85.09 137.43 80.72 163.91 51.87 149.25 62.33 135.1 85.09 137.43"/><path class="l" d="M107.17,110.51a10.91,10.91,0,1,0,4.56,5.13"/><path class="k" d="M101.75,132.25a12.32,12.32,0,1,1,6.15-23,1.45,1.45,0,0,1-1.45,2.52,9.39,9.39,0,1,0,4,4.44,1.45,1.45,0,1,1,2.67-1.15,12.33,12.33,0,0,1-11.32,17.19Z"/><path class="n" d="M107.13,120.92a1.45,1.45,0,0,1-1.45-1.45,3.94,3.94,0,0,0-3.93-3.93,1.46,1.46,0,1,1,0-2.91,6.84,6.84,0,0,1,6.83,6.84A1.45,1.45,0,0,1,107.13,120.92Z"/><rect class="l" x="57.76" y="125.31" width="51.35" height="11.89"/><path class="k" d="M110.56,138.66H56.3v-14.8h54.26Zm-51.35-2.91h48.44v-9H59.21Z"/><rect class="m" x="59.28" y="126.77" width="22.32" height="8.99"/><rect class="k" x="65.32" y="131.26" width="6.22" height="6.22"/><rect class="k" x="75.37" y="131.26" width="6.22" height="6.22"/><rect class="k" x="86.16" y="131.26" width="6.22" height="6.22"/><rect class="k" x="97.49" y="131.26" width="6.22" height="6.22"/><rect class="l" x="63.77" y="42.68" width="34.27" height="34.38"/><path class="k" d="M99.49,78.52H62.31V41.23H99.49ZM65.22,75.61H96.58V44.14H65.22Z"/><polygon class="k" points="97.87 55.1 76.94 55.1 76.94 63.19 84.43 63.19 84.43 75.58 92.53 75.58 92.53 63.19 97.87 63.19 97.87 55.1"/><rect class="k" x="130.33" y="89.68" width="34.33" height="6.34"/><polyline class="m" points="141.56 19.91 146.77 24.92 146.77 89.65 141.56 89.65"/><polygon class="l" points="155.72 18.69 148.24 10.85 140.25 18.69 140.25 92.68 155.72 92.68 155.72 18.69"/><path class="k" d="M148.18,14l5.63,5.87V89.77H142.16V19.91l6-5.92m.06-4.14-9,8.84v74h17.47v-74l-8.48-8.84Z"/><polygon class="k" points="149.53 89.65 146.62 89.65 146.62 24.8 141.96 20.13 144.01 18.08 149.53 23.59 149.53 89.65"/><polyline class="n" points="154.04 19.91 149.39 24.92 149.39 89.65 154.04 89.65"/><path class="o" d="M152.37,47.54h-.15l-.14,0-.13,0-.14,0-.13-.06-.12-.08-.11-.08a.52.52,0,0,1-.11-.1,1.46,1.46,0,0,1-.43-1c0-.05,0-.1,0-.15s0-.09,0-.14a1,1,0,0,1,0-.14l0-.13a.83.83,0,0,1,.07-.13.75.75,0,0,1,.07-.12l.08-.12.1-.1a.52.52,0,0,1,.11-.1l.11-.08.12-.08.13-.06.14-.05.13,0,.14,0h.29l.14,0,.14,0,.13.05.13.06a.57.57,0,0,1,.13.08l.11.08.11.1.09.1.09.12.07.12.06.13a.69.69,0,0,1,0,.13l0,.14,0,.14v.15a1.45,1.45,0,0,1-.42,1l-.11.1-.11.08a.57.57,0,0,1-.13.08l-.13.06-.13,0-.14,0-.14,0Z"/><path class="o" d="M151.57,76.7h-.15l-.14,0-.13,0-.14,0-.13-.06-.12-.07-.11-.09-.11-.09-.1-.11a.44.44,0,0,1-.08-.11.75.75,0,0,1-.07-.12l-.07-.13s0-.09,0-.14a.57.57,0,0,1,0-.14s0-.09,0-.14,0-.09,0-.14,0-.1,0-.14,0-.1,0-.14a.57.57,0,0,1,0-.14s0-.09,0-.14l.07-.13a.75.75,0,0,1,.07-.12.44.44,0,0,1,.08-.11l.1-.11.11-.09a.48.48,0,0,1,.11-.09l.12-.07.13-.06.14,0,.13,0,.14,0h.29l.14,0,.14,0,.13,0a.52.52,0,0,1,.13.06l.13.07.11.09.11.09.09.11.09.11.07.12.06.13a.78.78,0,0,1,.05.14l0,.14,0,.14v.28l0,.14,0,.14a.78.78,0,0,1-.05.14l-.06.13-.07.12-.09.11-.09.11-.11.09-.11.09-.13.07a.52.52,0,0,1-.13.06l-.13,0-.14,0-.14,0Z"/><g class="p"><rect class="m" x="49.44" y="82.96" width="27.17" height="41.43"/></g><circle class="l" cx="164.57" cy="92.82" r="4.5"/><path class="k" d="M164.57,90.89a1.94,1.94,0,1,1-1.94,1.93,1.94,1.94,0,0,1,1.94-1.93m0-2.91a4.85,4.85,0,1,0,4.84,4.84A4.85,4.85,0,0,0,164.57,88Z"/><circle class="l" cx="148.2" cy="92.44" r="4.5"/><path class="k" d="M148.2,88a4.46,4.46,0,1,1-4.45,4.46A4.46,4.46,0,0,1,148.2,88m0-2.9a7.37,7.37,0,1,0,7.37,7.36,7.35,7.35,0,0,0-7.37-7.36Z"/><rect class="m" x="65.14" y="44.09" width="8.88" height="31.53"/><path class="n" d="M94.93,52.47H79.34a1.45,1.45,0,0,1,0-2.9H94.93a1.45,1.45,0,0,1,0,2.9Z"/><path class="n" d="M113.68,106.81a1.45,1.45,0,0,1-1.46-1.45V81.72a1.46,1.46,0,0,1,2.91,0v23.64A1.45,1.45,0,0,1,113.68,106.81Z"/><path class="n" d="M153,104.28a1.45,1.45,0,0,1-1-.43l-1.16-1.16a1.45,1.45,0,0,1,0-2.06,1.47,1.47,0,0,1,2.06,0L154,101.8a1.46,1.46,0,0,1-1,2.48Z"/><path class="n" d="M153,109.37a1.48,1.48,0,0,1-1-.42l-1.16-1.17a1.45,1.45,0,1,1,2.06-2l1.16,1.16a1.45,1.45,0,0,1-1,2.48Z"/><path class="n" d="M153,114.61a1.45,1.45,0,0,1-1-.43L150.82,113a1.46,1.46,0,0,1,2.06-2.06l1.16,1.16a1.45,1.45,0,0,1,0,2.06A1.43,1.43,0,0,1,153,114.61Z"/><g class="q"><rect class="j" x="71.26" y="58.88" width="20.79" height="13.22" transform="translate(16.16 147.15) rotate(-90)"/></g><line class="o" x1="148.08" y1="24.19" x2="153.24" y2="19.03"/><rect class="k" x="147.01" y="20.16" width="7.3" height="2.91" transform="translate(28.84 112.86) rotate(-45)"/><rect class="k" x="123.2" y="98.43" width="7.15" height="6.38" rx="1.53" ry="1.53" transform="translate(-34.72 119.4) rotate(-45)"/><polygon class="l" points="95.4 212.01 119.56 211.7 112.03 224.04 137.12 235.09 94.51 234.94 98.68 222.19 95.4 212.01"/><path class="k" d="M137.12,236.54h0l-42.61-.15a1.45,1.45,0,0,1-1.18-.6,1.47,1.47,0,0,1-.2-1.3l4-12.31L94,212.45a1.45,1.45,0,0,1,1.36-1.9l24.16-.3a1.44,1.44,0,0,1,1.28.73,1.45,1.45,0,0,1,0,1.48l-6.66,10.92,23.57,10.38a1.45,1.45,0,0,1-.59,2.78Zm-40.6-3,33.63.12-18.71-8.24a1.47,1.47,0,0,1-.8-.89,1.49,1.49,0,0,1,.15-1.2L117,213.19l-19.56.25,2.67,8.3a1.39,1.39,0,0,1,0,.9Z"/><rect class="k" x="96.12" y="143.19" width="8.73" height="52.55" transform="translate(-16.63 11.04) rotate(-5.81)"/><polygon class="k" points="96.39 199.54 113.06 194.56 113.16 212.88 96.49 212.97 96.39 199.54"/><polygon class="l" points="76.72 212.21 52.56 212.17 60.19 224.43 35.18 235.33 77.8 235.13 73.53 222.42 76.72 212.21"/><path class="k" d="M35.18,236.78A1.46,1.46,0,0,1,34.6,234l23.47-10.22-6.74-10.83a1.45,1.45,0,0,1,1.23-2.22h0l24.15,0a1.47,1.47,0,0,1,1.39,1.89l-3,9.77,4.12,12.26A1.49,1.49,0,0,1,79,236a1.44,1.44,0,0,1-1.18.6l-42.61.2Zm20-23.15,6.24,10a1.46,1.46,0,0,1-.66,2.1l-18.53,8.08,33.54-.16-3.63-10.79a1.46,1.46,0,0,1,0-.9l2.6-8.33Z"/><rect class="k" x="46.79" y="167.65" width="47.22" height="8.73" transform="translate(-103.7 237.09) rotate(-88.23)"/><polygon class="k" points="77.17 198.96 59.15 195.28 59.05 213.25 77.04 213.34 77.17 198.96"/><rect class="k" x="152.51" y="55.32" width="3.13" height="3.13" transform="translate(85.35 -92.29) rotate(45)"/><polygon class="k" points="154.08 54.67 151.87 56.89 154.08 59.1 156.29 56.89 154.08 54.67 154.08 54.67"/><rect class="k" x="140.61" y="75.18" width="3.13" height="3.13" transform="translate(95.91 -78.06) rotate(45)"/><polygon class="k" points="142.18 74.53 139.96 76.74 142.18 78.95 144.39 76.74 142.18 74.53 142.18 74.53"/><rect class="k" x="23.61" y="86.04" width="15.58" height="26.7" transform="translate(74.27 4.38) rotate(41.82)"/><rect class="k" x="24.69" y="108.36" width="15.58" height="21.35" transform="translate(-77.88 63.87) rotate(-48.18)"/><path class="l" d="M59.9,89.62a18.41,18.41,0,0,0-18.42-18,18.42,18.42,0,0,0-18,18.42C23.62,99.79,60,99.35,59.9,89.62Z"/><path class="k" d="M41.16,98.59a39.8,39.8,0,0,1-12.38-1.75c-5.52-1.9-6.71-4.73-6.73-6.77a19.22,19.22,0,0,1,1.45-7.53,20.23,20.23,0,0,1,4.13-6.3,20,20,0,0,1,6.19-4.37,19.25,19.25,0,0,1,15.32-.18,19.85,19.85,0,0,1,6.29,4.21,20.13,20.13,0,0,1,4.28,6.2,19,19,0,0,1,1.64,7.5h0c0,2-1.1,4.9-6.57,6.92a40.07,40.07,0,0,1-13,2.07ZM41.7,73.1h-.2a16.49,16.49,0,0,0-11.77,5.16,17.21,17.21,0,0,0-3.54,5.39A16.19,16.19,0,0,0,25,90c0,3.2,7.1,5.64,16.19,5.64h.62c9.39-.11,16.71-2.77,16.67-6h0a16.14,16.14,0,0,0-1.39-6.36A17,17,0,0,0,53.39,78,16.55,16.55,0,0,0,41.7,73.1Z"/><path class="n" d="M32.8,82.44a1.47,1.47,0,0,1-.89-.3,1.45,1.45,0,0,1-.27-2,11.69,11.69,0,0,1,18.46-.31,1.45,1.45,0,1,1-2.24,1.85A8.79,8.79,0,0,0,34,81.87,1.47,1.47,0,0,1,32.8,82.44Z"/><rect class="k" x="30.69" y="106.54" width="6.07" height="5.42" rx="1.3" ry="1.3" transform="translate(-2.43 0.78) rotate(-1.28)"/><circle class="l" cx="22.98" cy="110.01" r="9.73"/><path class="k" d="M23,121.2a11.2,11.2,0,1,1,8.35-3.73h0a11.15,11.15,0,0,1-7.71,3.71Zm0-19.46a8.27,8.27,0,1,0,6.17,13.79h0A8.27,8.27,0,0,0,23,101.74Z"/><path class="n" d="M22.8,113.26a2.68,2.68,0,0,1-1.8-.69,2.71,2.71,0,0,1-.9-1.87,2.66,2.66,0,0,1,.69-2,2.71,2.71,0,1,1,4,3.61h0a2.71,2.71,0,0,1-1.87.9Zm-.14-2.85a.19.19,0,0,0,0,.28.18.18,0,0,0,.27,0h0Zm.15-.06h0a.2.2,0,0,0-.14.06l.29.27a.16.16,0,0,0,.05-.14.17.17,0,0,0-.06-.14A.24.24,0,0,0,22.81,110.35Z"/><path class="n" d="M51.53,85.76a1.68,1.68,0,0,1-1.11-.42,1.66,1.66,0,0,1-.55-1.14,1.7,1.7,0,0,1,.42-1.2,1.68,1.68,0,0,1,1.15-.55,1.63,1.63,0,0,1,1.19.42,1.66,1.66,0,0,1,.13,2.34,1.62,1.62,0,0,1-1.14.55Z"/><path class="n" d="M28.38,109.78a1.45,1.45,0,0,1-1.36-1,4.3,4.3,0,0,0-6.46-2.12,1.45,1.45,0,1,1-1.6-2.43,7.21,7.21,0,0,1,10.79,3.54,1.47,1.47,0,0,1-.86,1.87A1.52,1.52,0,0,1,28.38,109.78Z"/><path class="k" d="M105.09,184.56a7,7,0,1,1,7-7A7,7,0,0,1,105.09,184.56Zm0-8.72a1.75,1.75,0,1,0,1.75,1.74A1.74,1.74,0,0,0,105.09,175.84Z"/><path class="k" d="M67.06,185.07a7,7,0,1,1,7-7A7,7,0,0,1,67.06,185.07Zm0-8.73a1.75,1.75,0,1,0,1.74,1.75A1.75,1.75,0,0,0,67.06,176.34Z"/><rect class="j" x="57.09" y="138.6" width="53.09" height="2.91"/><polygon class="j" points="66.42 156.8 74.98 161.07 74.69 166.89 66.11 163.76 66.42 156.8"/><polygon class="j" points="103.5 155.59 95.02 159.84 95.69 165.63 104.05 161.94 103.5 155.59"/><path class="j" d="M62.33,146.6a5.1,5.1,0,0,1-5.09-5.09,1.46,1.46,0,1,1,2.91,0,2.18,2.18,0,0,0,4.36,0,1.46,1.46,0,1,1,2.91,0A5.1,5.1,0,0,1,62.33,146.6Z"/><path class="j" d="M30.11,125.43a4.66,4.66,0,0,1-4.66-4.65,1.46,1.46,0,1,1,2.91,0,1.75,1.75,0,0,0,3.5,0,1.45,1.45,0,1,1,2.9,0A4.65,4.65,0,0,1,30.11,125.43Z"/><path class="j" d="M34.55,120.78a5.11,5.11,0,0,1-5.1-5.09,1.46,1.46,0,1,1,2.91,0,2.19,2.19,0,0,0,4.37,0,1.46,1.46,0,1,1,2.91,0A5.1,5.1,0,0,1,34.55,120.78Z"/><path class="j" d="M132.51,109.41A4.52,4.52,0,0,1,128,104.9a1.46,1.46,0,0,1,2.91,0,1.6,1.6,0,0,0,1.6,1.6,1.46,1.46,0,1,1,0,2.91Z"/><path class="j" d="M132.51,116a4.52,4.52,0,0,1-4.51-4.51,1.46,1.46,0,0,1,2.91,0,1.6,1.6,0,0,0,3.2,0,1.46,1.46,0,0,1,2.91,0A4.51,4.51,0,0,1,132.51,116Z"/><path class="j" d="M30.91,103.54a5.09,5.09,0,0,1-5.09-5.09,1.46,1.46,0,0,1,2.91,0,2.18,2.18,0,0,0,4.36,0,1.46,1.46,0,0,1,2.91,0A5.09,5.09,0,0,1,30.91,103.54Z"/><path class="j" d="M75.57,153.43a5.1,5.1,0,0,1-5.1-5.09,1.46,1.46,0,0,1,2.91,0,2.19,2.19,0,1,0,4.37,0,1.46,1.46,0,0,1,2.91,0A5.1,5.1,0,0,1,75.57,153.43Z"/><path class="j" d="M75.57,159.54a1.46,1.46,0,1,1,0-2.91,2.18,2.18,0,0,0,2.18-2.18,1.46,1.46,0,0,1,2.91,0A5.1,5.1,0,0,1,75.57,159.54Z"/><path class="j" d="M93.17,159.54a5.09,5.09,0,0,1-5.09-5.09,1.45,1.45,0,0,1,2.9,0,2.18,2.18,0,0,0,2.19,2.18,1.46,1.46,0,0,1,0,2.91Z"/><path class="j" d="M91.35,152.85a5.09,5.09,0,0,1-5.09-5.09,1.46,1.46,0,0,1,2.91,0,2.18,2.18,0,0,0,4.36,0,1.46,1.46,0,0,1,2.91,0A5.09,5.09,0,0,1,91.35,152.85Z"/><path class="j" d="M100.73,152.85a1.46,1.46,0,0,1,0-2.91,2.19,2.19,0,0,0,2.18-2.18,1.46,1.46,0,0,1,2.91,0A5.09,5.09,0,0,1,100.73,152.85Z"/><path class="j" d="M66.55,153.43a5.09,5.09,0,0,1-5.09-5.09,1.46,1.46,0,0,1,2.91,0,2.18,2.18,0,0,0,2.18,2.19,1.45,1.45,0,1,1,0,2.9Z"/><path class="j" d="M71.57,146.6a5.11,5.11,0,0,1-5.1-5.09h2.91a2.19,2.19,0,0,0,4.37,0h2.91A5.1,5.1,0,0,1,71.57,146.6Z"/><path class="j" d="M80.07,146.6A5.1,5.1,0,0,1,75,141.51h2.91a2.19,2.19,0,0,0,4.37,0h2.91A5.11,5.11,0,0,1,80.07,146.6Z"/><path class="j" d="M89.24,146.6a5.1,5.1,0,0,1-5.09-5.09h2.91a2.18,2.18,0,0,0,4.36,0h2.91A5.1,5.1,0,0,1,89.24,146.6Z"/><path class="j" d="M96.66,146.6a5.1,5.1,0,0,1-5.09-5.09h2.91a2.18,2.18,0,0,0,4.36,0h2.91A5.1,5.1,0,0,1,96.66,146.6Z"/><path class="j" d="M108,203a4.23,4.23,0,0,1-4.22-4.22,1.46,1.46,0,1,1,2.91,0,1.31,1.31,0,0,0,2.62,0,1.46,1.46,0,1,1,2.91,0A4.23,4.23,0,0,1,108,203Z"/><path class="j" d="M63.93,203a4.23,4.23,0,0,1-4.22-4.22,1.46,1.46,0,1,1,2.91,0,1.31,1.31,0,1,0,2.62,0,1.46,1.46,0,1,1,2.91,0A4.23,4.23,0,0,1,63.93,203Z"/><path class="j" d="M108,209.73a4.23,4.23,0,0,1-4.22-4.22,1.46,1.46,0,1,1,2.91,0,1.31,1.31,0,0,0,2.62,0,1.46,1.46,0,1,1,2.91,0A4.23,4.23,0,0,1,108,209.73Z"/><path class="j" d="M101.68,209.73a4.23,4.23,0,0,1-4.22-4.22,1.46,1.46,0,1,1,2.91,0,1.31,1.31,0,1,0,2.61,0,1.46,1.46,0,1,1,2.91,0A4.23,4.23,0,0,1,101.68,209.73Z"/><path class="j" d="M71.57,209.73a4.23,4.23,0,0,1-4.22-4.22,1.46,1.46,0,1,1,2.91,0,1.31,1.31,0,1,0,2.61,0,1.46,1.46,0,1,1,2.91,0A4.23,4.23,0,0,1,71.57,209.73Z"/><path class="j" d="M65.24,209.73A4.23,4.23,0,0,1,61,205.51a1.46,1.46,0,1,1,2.91,0,1.31,1.31,0,0,0,2.62,0,1.46,1.46,0,1,1,2.91,0A4.23,4.23,0,0,1,65.24,209.73Z"/><path class="j" d="M105.31,146.6a5.1,5.1,0,0,1-5.09-5.09h2.91a2.18,2.18,0,0,0,4.36,0h2.91A5.1,5.1,0,0,1,105.31,146.6Z"/><polygon class="k" points="59.27 119.76 53.75 114.74 53.75 99.83 59.27 97.65 59.27 119.76"/><path class="j" d="M107.42,182.67a3.24,3.24,0,1,1-4.58-4.58"/><path class="j" d="M69.13,178.89a3.24,3.24,0,1,1-4.58,4.58"/><path class="k" d="M119.13,77.58c0-2.58-3.09-4.67-6.91-4.67s-6.9,2.09-6.9,4.67"/><rect class="k" x="144.59" y="119.91" width="7.13" height="8.44"/><circle class="k" cx="148.2" cy="132.1" r="6.81"/><path class="j" d="M148.78,134.17a2.68,2.68,0,0,1-2.69-2.69,2.83,2.83,0,0,1,.13-.83,3.47,3.47,0,1,0,4,3.44c0-.11,0-.21,0-.32A2.72,2.72,0,0,1,148.78,134.17Z"/><circle class="l" cx="150.6" cy="129.66" r="1.41"/><rect class="k" x="62.6" y="227.04" width="14.66" height="2.91" transform="translate(-161.53 169.12) rotate(-58.6)"/><path class="k" d="M60.77,236.55a1.47,1.47,0,0,1-1.3-.79L54,225a1.46,1.46,0,0,1,2.59-1.33l5.49,10.76a1.45,1.45,0,0,1-1.29,2.11Z"/><path class="k" d="M51.71,233.29a1.46,1.46,0,0,1-1.32-.84l-2.18-4.65a1.46,1.46,0,0,1,2.64-1.24L53,231.22a1.46,1.46,0,0,1-.7,1.93A1.37,1.37,0,0,1,51.71,233.29Z"/><rect class="k" x="100.62" y="221.29" width="2.91" height="14.03" transform="translate(-97.43 77.5) rotate(-28.82)"/><path class="k" d="M110.8,236.26a1.37,1.37,0,0,1-.62-.14,1.46,1.46,0,0,1-.69-1.94l5.42-11.33a1.45,1.45,0,1,1,2.62,1.25l-5.41,11.33A1.45,1.45,0,0,1,110.8,236.26Z"/><path class="k" d="M120.8,232.93a1.41,1.41,0,0,1-.45-.07,1.46,1.46,0,0,1-.93-1.84l1.75-5.38a1.45,1.45,0,1,1,2.76.9l-1.74,5.38A1.46,1.46,0,0,1,120.8,232.93Z"/><path class="n" d="M69.17,218.16H60.73a1.46,1.46,0,1,1,0-2.91h8.44a1.46,1.46,0,0,1,0,2.91Z"/><path class="n" d="M55.11,232.94a1.44,1.44,0,0,1-1.37-1l-.35-1a1.45,1.45,0,1,1,2.75-.95l.35,1a1.45,1.45,0,0,1-.9,1.85A1.34,1.34,0,0,1,55.11,232.94Z"/><path class="n" d="M110.11,218.16h-8.43a1.46,1.46,0,1,1,0-2.91h8.43a1.46,1.46,0,1,1,0,2.91Z"/><path class="i" d="M48,169.58a3.38,3.38,0,1,1,3.38-3.38A3.38,3.38,0,0,1,48,169.58Zm0-3.85a.47.47,0,1,0,0,.94.47.47,0,0,0,0-.94Z"/><path class="i" d="M86.15,176.64a3.39,3.39,0,1,1,3.38-3.39A3.38,3.38,0,0,1,86.15,176.64Zm0-3.86a.48.48,0,0,0-.48.47.49.49,0,0,0,.48.48.48.48,0,0,0,.47-.48A.47.47,0,0,0,86.15,172.78Z"/><path class="i" d="M78.51,186a3.39,3.39,0,1,1,3.38-3.38A3.39,3.39,0,0,1,78.51,186Zm0-3.86a.48.48,0,1,0,.47.48A.47.47,0,0,0,78.51,182.16Z"/><path class="i" d="M55.82,178.38A3.38,3.38,0,1,1,59.2,175,3.38,3.38,0,0,1,55.82,178.38Zm0-3.85a.47.47,0,1,0,.47.47A.47.47,0,0,0,55.82,174.53Z"/><path class="i" d="M55.82,169.58a3.38,3.38,0,1,1,3.38-3.38A3.38,3.38,0,0,1,55.82,169.58Zm0-3.85a.47.47,0,1,0,.47.47A.47.47,0,0,0,55.82,165.73Z"/><path class="i" d="M48,151a3.38,3.38,0,1,1,3.38-3.38A3.38,3.38,0,0,1,48,151Zm0-3.85a.48.48,0,0,0-.48.47.49.49,0,0,0,.48.48.48.48,0,0,0,.47-.48A.47.47,0,0,0,48,147.18Z"/><path class="i" d="M48.3,178a1.45,1.45,0,0,1-1.45-1.45V175a1.51,1.51,0,0,1-.85-.41,1.45,1.45,0,0,1,0-2.06l1.27-1.28a1.47,1.47,0,0,1,1.59-.31,1.45,1.45,0,0,1,.9,1.34v4.26A1.45,1.45,0,0,1,48.3,178Z"/><path class="i" d="M49.67,179.07H46.84a1.46,1.46,0,1,1,0-2.91h2.83a1.46,1.46,0,1,1,0,2.91Z"/><path class="i" d="M63.36,168.67a1.45,1.45,0,0,1-1.46-1.45v-1.54a1.45,1.45,0,0,1-.85-2.47l1.28-1.28a1.45,1.45,0,0,1,1.58-.31,1.43,1.43,0,0,1,.9,1.34v4.26A1.45,1.45,0,0,1,63.36,168.67Z"/><path class="i" d="M64.73,169.76H61.89a1.46,1.46,0,0,1,0-2.91h2.84a1.46,1.46,0,0,1,0,2.91Z"/><path class="i" d="M78.49,176.09A1.45,1.45,0,0,1,77,174.64V173.1a1.51,1.51,0,0,1-.85-.41,1.45,1.45,0,0,1,0-2.06l1.28-1.28a1.46,1.46,0,0,1,2.48,1v4.26A1.45,1.45,0,0,1,78.49,176.09Z"/><path class="i" d="M79.86,177.18H77a1.46,1.46,0,0,1,0-2.91h2.84a1.46,1.46,0,0,1,0,2.91Z"/><path class="i" d="M86.27,185.25a1.45,1.45,0,0,1-1.46-1.45v-1.54a1.39,1.39,0,0,1-.85-.41,1.45,1.45,0,0,1,0-2.06l1.28-1.27a1.45,1.45,0,0,1,2.48,1v4.26A1.45,1.45,0,0,1,86.27,185.25Z"/><path class="i" d="M87.64,186.34H84.8a1.46,1.46,0,0,1,0-2.91h2.84a1.46,1.46,0,0,1,0,2.91Z"/><path class="i" d="M94.56,185.25a1.46,1.46,0,0,1-1.46-1.45v-1.54a1.39,1.39,0,0,1-.85-.41,1.47,1.47,0,0,1,0-2.06l1.28-1.27a1.45,1.45,0,0,1,2.48,1v4.26A1.45,1.45,0,0,1,94.56,185.25Z"/><path class="i" d="M95.93,186.34H93.09a1.46,1.46,0,0,1,0-2.91h2.84a1.46,1.46,0,0,1,0,2.91Z"/><path class="i" d="M86.27,167.22a1.46,1.46,0,0,1-1.46-1.46v-1.53a1.46,1.46,0,0,1-.85-.42,1.44,1.44,0,0,1,0-2.05l1.28-1.28a1.45,1.45,0,0,1,2.48,1v4.25A1.45,1.45,0,0,1,86.27,167.22Z"/><path class="i" d="M87.64,168.3H84.8a1.46,1.46,0,0,1,0-2.91h2.84a1.46,1.46,0,0,1,0,2.91Z"/><path class="i" d="M48.3,187.18a1.45,1.45,0,0,1-1.45-1.45v-.63a1.51,1.51,0,0,1-.85-.41,1.45,1.45,0,0,1,0-2.06l1.27-1.28a1.47,1.47,0,0,1,1.59-.31,1.45,1.45,0,0,1,.9,1.34v3.35A1.45,1.45,0,0,1,48.3,187.18Z"/><path class="i" d="M48.3,160a1.45,1.45,0,0,1-1.45-1.46V157a1.46,1.46,0,0,1-.85-2.48l1.27-1.27a1.46,1.46,0,0,1,2.49,1v4.25A1.46,1.46,0,0,1,48.3,160Z"/><path class="i" d="M49.67,161.1H46.84a1.46,1.46,0,1,1,0-2.91h2.83a1.46,1.46,0,1,1,0,2.91Z"/><path class="m" d="M137.75,107.47a3.93,3.93,0,0,1,0-7.86"/><path class="k" d="M137.75,108.92a5.38,5.38,0,1,1,0-10.76v2.91a2.47,2.47,0,0,0,0,4.94Z"/><line class="k" x1="154.99" y1="32.19" x2="151.57" y2="35.61"/><path class="k" d="M151.57,37.07a1.47,1.47,0,0,1-1-.43,1.45,1.45,0,0,1,0-2.06L154,31.17a1.45,1.45,0,1,1,2,2l-3.41,3.42A1.49,1.49,0,0,1,151.57,37.07Z"/><path class="k" d="M143.93,74.38h-.14l-.14,0-.14,0-.13,0-.13-.07-.13-.07-.11-.08-.11-.1-.09-.11-.09-.11-.07-.12-.06-.13a.69.69,0,0,1-.05-.13.89.89,0,0,1,0-.14l0-.14v-.29l0-.14a.7.7,0,0,1,0-.14.5.5,0,0,1,.05-.13l.06-.13.07-.12.09-.12.09-.11.11-.09.11-.09.13-.07.13-.06.13,0,.14,0,.14,0a1.31,1.31,0,0,1,.28,0l.15,0,.13,0,.14,0,.13.06.12.07.11.09.11.09.1.11.08.12a.47.47,0,0,1,.07.12.31.31,0,0,1,.06.13.5.5,0,0,1,0,.13.74.74,0,0,1,0,.14s0,.09,0,.14,0,.1,0,.14,0,.1,0,.15,0,.09,0,.14a1,1,0,0,1,0,.14.69.69,0,0,1,0,.13.38.38,0,0,1-.06.13.75.75,0,0,1-.07.12,1,1,0,0,1-.08.11L145,74l-.11.1-.11.08-.12.07-.13.07-.14,0-.13,0-.15,0Z"/><line class="k" x1="154.99" y1="77.07" x2="148.95" y2="82.74"/><path class="k" d="M149,84.2a1.46,1.46,0,0,1-1-2.52L154,76a1.45,1.45,0,1,1,2,2.12l-6,5.67A1.48,1.48,0,0,1,149,84.2Z"/><path class="l" d="M34.81,117.7H52.66a2.62,2.62,0,0,1,2.62,2.62v18.16a2.62,2.62,0,0,1-2.62,2.62H34.81a0,0,0,0,1,0,0V117.7A0,0,0,0,1,34.81,117.7Z" transform="translate(97.76 2.93) rotate(41.82)"/><path class="k" d="M44.66,145.32a4,4,0,0,1-2.71-1h0l-13.3-11.9a1.45,1.45,0,0,1-.12-2l15.6-17.44a1.48,1.48,0,0,1,2.06-.12l13.3,11.9a4.09,4.09,0,0,1,.32,5.76L47.7,144a4.07,4.07,0,0,1-2.81,1.35Zm-.77-3.21a1.16,1.16,0,0,0,1.64-.09l12.11-13.53a1.16,1.16,0,0,0-.09-1.65L45.33,115.91,31.67,131.18Z"/><path class="m" d="M31.13,132.16H48.74a0,0,0,0,1,0,0v4.24a1.33,1.33,0,0,1-1.33,1.33H31.13a0,0,0,0,1,0,0v-5.56A0,0,0,0,1,31.13,132.16Z" transform="translate(100.15 7.75) rotate(41.82)"/><path class="n" d="M52.8,129a1.41,1.41,0,0,1-1-.4l-7.73-7.25a1.45,1.45,0,1,1,2-2.12l7.73,7.25a1.46,1.46,0,0,1-1,2.52Z"/><path class="j" d="M150,122.82h-3.78a1.46,1.46,0,1,1,0-2.91H150a1.46,1.46,0,1,1,0,2.91Z"/><path class="j" d="M150.19,126.31a1.62,1.62,0,0,1-.44-.07L145.82,125a1.45,1.45,0,1,1,.88-2.77l3.92,1.23a1.46,1.46,0,0,1-.43,2.85Z"/><rect class="k" x="63.95" y="175.7" width="3.1" height="4.11"/><rect class="k" x="104.37" y="175.91" width="3.1" height="4.11"/><path class="n" d="M116.83,232.73a1.52,1.52,0,0,1-.42-.06,1.46,1.46,0,0,1-1-1.81l.3-1a1.46,1.46,0,1,1,2.79.83l-.3,1A1.46,1.46,0,0,1,116.83,232.73Z"/></svg>